<svg width="89" height="86" viewBox="0 0 89 86" fill="none" xmlns="http://www.w3.org/2000/svg">
<g clip-path="url(#clip0_1_11)">
<path d="M79.4 40.3H32.2C30.6934 40.3164 29.253 40.9222 28.1876 41.9876C27.1222 43.053 26.5164 44.4933 26.5 46V55.4L5.5 40.7C4.9206 40.4095 4.27651 40.2722 3.62903 40.301C2.98155 40.3299 2.35222 40.5239 1.80093 40.8647C1.24964 41.2055 0.794731 41.6817 0.479499 42.248C0.164267 42.8143 -0.000800937 43.4519 2.922e-06 44.1V81.8C0.0163197 82.8183 0.436276 83.7884 1.16758 84.4972C1.89888 85.206 2.88169 85.5955 3.9 85.58C4.45 85.57 5 85.44 5.5 85.2L26.5 70.5V79.9C26.5 83.05 29.05 85.6 32.2 85.6H79.4C80.9067 85.5836 82.347 84.9778 83.4124 83.9124C84.4778 82.847 85.0836 81.4066 85.1 79.9V45.9C85.06 42.79 82.51 40.29 79.4 40.3V40.3Z" fill="#0B0E0D"/>
<path d="M39.1001 41C50.4219 41 59.6001 31.8218 59.6001 20.5C59.6001 9.17816 50.4219 0 39.1001 0C27.7783 0 18.6001 9.17816 18.6001 20.5C18.6001 31.8218 27.7783 41 39.1001 41Z" fill="#0B0E0D"/>
<path d="M74.2001 41.1C82.153 41.1 88.6001 34.6529 88.6001 26.7C88.6001 18.7471 82.153 12.3 74.2001 12.3C66.2471 12.3 59.8 18.7471 59.8 26.7C59.8 34.6529 66.2471 41.1 74.2001 41.1Z" fill="#0B0E0D"/>
</g>
<defs>
<clipPath id="clip0_1_11">
<rect width="89" height="86" fill="white"/>
</clipPath>
</defs>
</svg>
