<svg width="250" height="250" viewBox="0 0 250 250" fill="none" xmlns="http://www.w3.org/2000/svg">
<path d="M13.8889 250V166.667H236.111V250H208.333V194.444H41.6667V250H13.8889ZM20.8333 152.778C15.0463 152.778 10.1296 150.75 6.08333 146.694C2.02778 142.648 0 137.731 0 131.944C0 126.157 2.02778 121.241 6.08333 117.194C10.1296 113.139 15.0463 111.111 20.8333 111.111C26.6204 111.111 31.537 113.139 35.5833 117.194C39.6389 121.241 41.6667 126.157 41.6667 131.944C41.6667 137.731 39.6389 142.648 35.5833 146.694C31.537 150.75 26.6204 152.778 20.8333 152.778ZM55.5556 152.778V27.7778C55.5556 20.1389 58.2778 13.5972 63.7222 8.15278C69.1574 2.71759 75.6944 0 83.3333 0H166.667C174.306 0 180.847 2.71759 186.292 8.15278C191.727 13.5972 194.444 20.1389 194.444 27.7778V152.778H55.5556ZM229.167 152.778C223.38 152.778 218.463 150.75 214.417 146.694C210.361 142.648 208.333 137.731 208.333 131.944C208.333 126.157 210.361 121.241 214.417 117.194C218.463 113.139 223.38 111.111 229.167 111.111C234.954 111.111 239.87 113.139 243.917 117.194C247.972 121.241 250 126.157 250 131.944C250 137.731 247.972 142.648 243.917 146.694C239.87 150.75 234.954 152.778 229.167 152.778ZM83.3333 125H166.667V27.7778H83.3333V125Z" fill="#0B0E0D"/>
</svg>
