<svg width="252" height="287" viewBox="0 0 252 287" fill="none" xmlns="http://www.w3.org/2000/svg">
<path d="M22.6884 286.026V210.684H228.753V286.026H202.995V235.798H48.4465V286.026H22.6884ZM29.1279 198.127C23.7616 198.127 19.2025 196.294 15.4504 192.627C11.6897 188.969 9.80933 184.523 9.80933 179.291C9.80933 174.059 11.6897 169.614 15.4504 165.956C19.2025 162.289 23.7616 160.456 29.1279 160.456C34.4942 160.456 39.0534 162.289 42.8055 165.956C46.5662 169.614 48.4465 174.059 48.4465 179.291C48.4465 184.523 46.5662 188.969 42.8055 192.627C39.0534 196.294 34.4942 198.127 29.1279 198.127ZM61.3256 198.127V85.1131C61.3256 78.2067 63.8499 72.2923 68.8984 67.37C73.9385 62.456 80.0002 59.999 87.0837 59.999H164.358C171.442 59.999 177.508 62.456 182.556 67.37C187.596 72.2923 190.116 78.2067 190.116 85.1131V198.127H61.3256ZM222.314 198.127C216.948 198.127 212.388 196.294 208.636 192.627C204.876 188.969 202.995 184.523 202.995 179.291C202.995 174.059 204.876 169.614 208.636 165.956C212.388 162.289 216.948 160.456 222.314 160.456C227.68 160.456 232.239 162.289 235.991 165.956C239.752 169.614 241.632 174.059 241.632 179.291C241.632 184.523 239.752 188.969 235.991 192.627C232.239 196.294 227.68 198.127 222.314 198.127Z" fill="#00401D"/>
<path d="M184.476 73.1345C186.331 81.0165 182.063 84.8462 186.331 89.8258C189.113 93.0713 195.736 91.5985 197.458 87.5075C201.168 78.6983 197.458 70.8163 197.458 70.8163C197.458 70.8163 261.905 62.007 249.387 45.3157C244.607 38.9423 228.986 45.3157 228.986 45.3157C228.986 45.3157 250.995 22.5929 240.578 16.106C232.508 11.0817 217.395 23.5244 217.395 23.5244C217.395 23.5244 226.205 7.76042 215.541 3.12396C204.932 -1.48864 194.677 25.8426 194.677 25.8426C194.677 25.8426 194.334 -2.01636 184.476 1.26936C169.176 6.36948 178.449 36.9701 178.449 36.9701C178.449 36.9701 161.752 17.9294 157.121 23.5244C145.994 36.9701 169.176 54.5887 169.176 54.5887C169.176 54.5887 156.571 51.6161 150.167 56.9069C139.503 65.7162 181.588 60.8573 184.476 73.1345Z" fill="#E0F7C3" stroke="#0B0E0D"/>
<path d="M67.5224 73.3554C65.6679 81.2615 69.936 85.103 65.6678 90.0978C62.886 93.3532 56.2631 91.876 54.5406 87.7724C50.8314 78.9362 54.5406 71.0301 54.5406 71.0301C54.5406 71.0301 -9.90491 62.1938 2.61327 45.4514C7.3933 39.0584 23.0133 45.4514 23.0133 45.4514C23.0133 45.4514 1.00466 22.659 11.4224 16.1523C19.4913 11.1126 34.6042 23.5934 34.6042 23.5934C34.6042 23.5934 25.7951 7.78112 36.4587 3.13047C47.0675 -1.49626 57.3224 25.9187 57.3224 25.9187C57.3224 25.9187 57.6654 -2.0256 67.5224 1.27019C82.8224 6.38593 73.5497 37.0803 73.5497 37.0803C73.5497 37.0803 90.2468 17.9813 94.877 23.5934C106.004 37.0803 82.8224 54.7528 82.8224 54.7528C82.8224 54.7528 95.427 51.7711 101.831 57.0781C112.495 65.9144 70.411 61.0406 67.5224 73.3554Z" fill="#E0F7C3" stroke="#0B0E0D"/>
</svg>
