<svg width="258" height="252" viewBox="0 0 258 252" fill="none" xmlns="http://www.w3.org/2000/svg">
<path d="M217.019 148.457C212.58 144.138 210.333 138.828 210.333 132.646C210.333 126.463 212.58 121.154 217.019 116.834C221.448 112.506 226.871 110.333 233.167 110.333C239.462 110.333 244.884 112.505 249.313 116.833M217.019 148.457L247.917 118.265M217.019 148.457C221.448 152.786 226.871 154.958 233.167 154.958C239.461 154.958 244.882 152.787 249.311 148.461M217.019 148.457L218.417 147.027C222.463 150.981 227.38 152.958 233.167 152.958C238.954 152.958 243.87 150.981 247.917 147.027M249.313 116.833C249.313 116.833 249.314 116.834 249.315 116.834L247.917 118.265M249.313 116.833C249.312 116.832 249.312 116.832 249.311 116.831L247.917 118.265M249.313 116.833C253.753 121.153 256 126.463 256 132.646C256 138.83 253.753 144.14 249.311 148.461M247.917 118.265C251.972 122.21 254 127.003 254 132.646C254 138.288 251.972 143.082 247.917 147.027M249.311 148.461C249.312 148.46 249.313 148.459 249.315 148.457L247.917 147.027M249.311 148.461L247.917 147.027M15.8889 247.75V249.75H17.8889H45.6667H47.6667V247.75V195.583H210.333V247.75V249.75H212.333H240.111H242.111V247.75V166.5V164.5H240.111H17.8889H15.8889V166.5V247.75ZM57.5556 152.958V154.958H59.5556H198.444H200.444V152.958V31.0833C200.444 23.0848 197.501 16.1943 191.689 10.5181L191.687 10.5158C185.867 4.85081 178.823 2 170.667 2H87.3333C79.1765 2 72.1374 4.85091 66.326 10.517C60.5046 16.1928 57.5556 23.0836 57.5556 31.0833V152.958ZM8.68713 148.459C13.1162 152.787 18.538 154.958 24.8333 154.958C31.1289 154.958 36.5509 152.786 40.9801 148.459C45.42 144.138 47.6667 138.829 47.6667 132.646C47.6667 126.463 45.4199 121.153 40.9795 116.833C36.5504 112.505 31.1287 110.333 24.8333 110.333C18.5378 110.333 13.116 112.505 8.68683 116.833C4.24669 121.153 2 126.463 2 132.646C2 138.829 4.24679 144.139 8.68713 148.459Z" fill="#E6E5E2" stroke="#0B0E0D" stroke-width="4"/>
</svg>
